<?xml version="1.0" standalone="no"?>
<!DOCTYPE svg PUBLIC "-//W3C//DTD SVG 20010904//EN"
 "http://www.w3.org/TR/2001/REC-SVG-20010904/DTD/svg10.dtd">
<svg version="1.0" xmlns="http://www.w3.org/2000/svg"
 width="52.000000pt" height="51.000000pt" viewBox="0 0 52.000000 51.000000"
 preserveAspectRatio="xMidYMid meet">

<g transform="translate(0.000000,51.000000) scale(0.100000,-0.100000)"
fill="#000000" stroke="none">
<path d="M152 489 c-158 -80 -197 -271 -83 -401 134 -152 381 -95 437 100 33
113 -13 226 -120 291 -57 36 -174 41 -234 10z m149 -119 c15 -8 19 -22 19 -61
0 -28 5 -60 11 -71 14 -26 -12 -58 -33 -40 -9 7 -19 8 -28 2 -30 -19 -70 -11
-82 15 -16 36 2 70 46 85 20 6 36 18 36 26 0 17 -21 19 -37 3 -6 -6 -21 -9
-34 -7 l-24 3 27 28 c28 28 65 35 99 17z m-69 -215 c21 -4 52 -2 73 5 46 15
56 6 16 -14 -53 -28 -136 -14 -171 29 -14 17 -14 17 15 2 17 -8 47 -18 67 -22z
m148 28 c0 -5 -5 -15 -10 -23 -8 -13 -10 -13 -10 2 0 9 -8 19 -17 21 -11 3 -7
5 10 6 15 0 27 -2 27 -6z"/>
<path d="M245 267 c-19 -15 -13 -37 11 -37 8 0 14 10 14 25 0 29 0 29 -25 12z"/>
</g>
</svg>
